<svg height="512" viewBox="0 0 176 176" width="512" xmlns="http://www.w3.org/2000/svg"><g id="Layer_2" data-name="Layer 2"><g id="rocket"><path d="m104.75 63.75a7.44 7.44 0 1 0 7.47 7.47 7.42 7.42 0 0 0 -7.47-7.47z"/><path d="m132.17 0h-88.34a44 44 0 0 0 -43.83 43.83v88.34a44 44 0 0 0 43.83 43.83h88.34a44 44 0 0 0 43.83-43.83v-88.34a44 44 0 0 0 -43.83-43.83zm-.82 56.62a60.6 60.6 0 0 1 -6.45 17.12 48.54 48.54 0 0 1 -9.57 11.92c-3.52 3.2-7.06 6.38-10.66 9.49s-7.42 6.21-11.14 9.31c-1 .85-2.09 1.68-3.1 2.56a1.22 1.22 0 0 0 -.4.83q.07 7.53.21 15.06a2 2 0 0 1 -.81 1.72c-3.44 2.66-6.85 5.35-10.27 8-.71.56-1.07.44-1.25-.45-.86-4.05-1.73-8.1-2.56-12.16 0-.09 0-.16-.06-.24l-10.08 5.58a1.4 1.4 0 0 1 -1.66-.24l-12.55-12.57a1.39 1.39 0 0 1 -.23-1.66l5.55-10-.32-.07-8.68-1.88c-1.16-.24-2.32-.48-3.48-.74-.85-.2-1-.56-.42-1.24 2.64-3.37 5.29-6.73 7.91-10.12a2.29 2.29 0 0 1 2.06-1c2.37.07 4.75 0 7.12 0h8.05a1 1 0 0 0 .15-.14c4.55-5.41 9-10.9 13.65-16.23 3.44-4 7-7.8 10.7-11.56a41.05 41.05 0 0 1 8.78-6.6 55.88 55.88 0 0 1 10.66-4.83 58.27 58.27 0 0 1 11.79-2.78c2.64-.32 5.31-.45 8-.68.59 0 .78.14.76.76a73.08 73.08 0 0 1 -1.7 12.84z"/></g></g></svg>